<svg width="32" height="32" viewBox="0 0 32 32" fill="none" xmlns="http://www.w3.org/2000/svg">
<path d="M10.6667 18H21.3334M10.6667 11.3333H16" stroke="black" stroke-width="1.5" stroke-linecap="round" stroke-linejoin="round"/>
<path d="M8.13177 25.3334C6.39829 25.1629 5.09969 24.6422 4.22878 23.7713C2.66669 22.2092 2.66669 19.695 2.66669 14.6667V14C2.66669 8.97173 2.66669 6.45757 4.22878 4.89547C5.79088 3.33337 8.30504 3.33337 13.3334 3.33337H18.6667C23.695 3.33337 26.2092 3.33337 27.7713 4.89547C29.3334 6.45757 29.3334 8.97173 29.3334 14V14.6667C29.3334 19.695 29.3334 22.2092 27.7713 23.7713C26.2092 25.3334 23.695 25.3334 18.6667 25.3334C17.9194 25.35 17.3242 25.4069 16.7395 25.5401C15.1417 25.9079 13.6621 26.7255 12.1998 27.4385C10.1164 28.4545 9.07468 28.9624 8.42095 28.4869C7.17028 27.5554 8.39274 24.6692 8.66669 23.3334" stroke="black" stroke-width="1.5" stroke-linecap="round"/>
</svg>
