<svg width="32" height="32" viewBox="0 0 32 32" fill="none" xmlns="http://www.w3.org/2000/svg">
<path d="M3.33337 16C3.33337 10.0289 3.33337 7.04335 5.18836 5.18836C7.04335 3.33337 10.0289 3.33337 16 3.33337C21.9712 3.33337 24.9567 3.33337 26.8117 5.18836C28.6667 7.04335 28.6667 10.0289 28.6667 16C28.6667 21.9712 28.6667 24.9567 26.8117 26.8117C24.9567 28.6667 21.9712 28.6667 16 28.6667C10.0289 28.6667 7.04335 28.6667 5.18836 26.8117C3.33337 24.9567 3.33337 21.9712 3.33337 16Z" stroke="black" stroke-width="1.5" stroke-linejoin="round"/>
<path d="M13.3334 20.6667C13.3334 21.7713 12.4379 22.6667 11.3334 22.6667C10.2288 22.6667 9.33337 21.7713 9.33337 20.6667C9.33337 19.5622 10.2288 18.6667 11.3334 18.6667C12.4379 18.6667 13.3334 19.5622 13.3334 20.6667Z" stroke="black" stroke-width="1.5"/>
<path d="M22.6667 11.3334C22.6667 10.2288 21.7713 9.33337 20.6667 9.33337C19.5622 9.33337 18.6667 10.2288 18.6667 11.3334C18.6667 12.4379 19.5622 13.3334 20.6667 13.3334C21.7713 13.3334 22.6667 12.4379 22.6667 11.3334Z" stroke="black" stroke-width="1.5"/>
<path d="M11.3334 18.6667V9.33337" stroke="black" stroke-width="1.5" stroke-linecap="round"/>
<path d="M20.6667 13.3334V22.6667" stroke="black" stroke-width="1.5" stroke-linecap="round"/>
</svg>
